<svg aria-hidden="true" style="position:absolute;width:0;height:0" xmlns="http://www.w3.org/2000/svg" overflow="hidden"><defs>

<symbol id="icon-twitter" viewBox="0 0 32 32"><path d="M32 6.08c-1.18.53-2.46.86-3.78 1.04a6.46 6.46 0 002.88-3.63 13.95 13.95 0 01-4.16 1.6 6.54 6.54 0 00-11.37 4.45c0 .54.06 1.06.18 1.56v-.04A18.55 18.55 0 012.26 4.23l-.03-.04a6.6 6.6 0 001.98 8.75l.02.02a6.3 6.3 0 01-2.96-.8v.06c0 3.2 2.27 5.84 5.26 6.45a6.41 6.41 0 01-3.01.1l.04.01a6.64 6.64 0 006.13 4.56h.01a13.1 13.1 0 01-9.77 2.73H0a18.29 18.29 0 0010 2.95h.07c12.08 0 18.67-10 18.67-18.67 0-.29 0-.58-.03-.85A13.1 13.1 0 0032 6.1z"/></symbol>

<symbol id="icon-smartphone" viewBox="0 0 32 32"><path d="M23 0H9a3 3 0 00-3 3v26a3 3 0 003 3h14a3 3 0 003-3V3a3 3 0 00-3-3zM9 2h14c.56 0 1 .44 1 1v21H8V3c0-.56.44-1 1-1zm14 28H9a1 1 0 01-1-1v-3h16v3a1 1 0 01-1 1z"/><path d="M10.7 27.48c.4.36.4.96 0 1.32a1.05 1.05 0 01-1.4 0 .9.9 0 010-1.32c.4-.36 1-.36 1.4 0z"/></symbol>

<symbol id="icon-logo5" viewBox="0 0 32 32"><path  d="M2.44 24.56c.12.15.19.35.18.54v.05c0 .26-.11.49-.29.65-.24.18-.54.27-.84.25h-1.5v-3.47h1.46c.29-.02.58.06.81.23.18.14.28.36.28.6v.05a.82.82 0 01-.16.53.8.8 0 01-.45.27c.2.04.38.14.5.3zm-1.75-.53h.62a.6.6 0 00.4-.11.41.41 0 00.14-.3v-.04-.02a.42.42 0 00-.14-.32.59.59 0 00-.41-.12H.7v.91zm1.08 1.34c.1-.08.15-.2.15-.32V25v-.03a.44.44 0 00-.15-.32.63.63 0 00-.42-.13H.69v.96h.66c.15 0 .3-.04.42-.12zm3.64.68l-.81-1.36h-.3v1.36h-.7v-3.47H5c.31 0 .6.1.83.3a1.1 1.1 0 01.1 1.43c-.17.19-.4.31-.64.35l.87 1.39H5.4zM4.3 24.22h.57c.4 0 .6-.18.6-.52v-.03a.52.52 0 00-.16-.36.58.58 0 00-.45-.15h-.58v1.06zm4.92 1.13h-1.4l-.24.7h-.73l1.28-3.43h.79l1.27 3.43h-.74l-.23-.7zm-.19-.53l-.51-1.46-.5 1.46h1.01zm4.95 1.23h-.7l-1.54-2.36v2.36h-.7v-3.47h.7l1.55 2.37v-2.38h.7v3.47zm3.95-.83c-.15.26-.37.48-.63.61-.3.16-.63.23-.97.22H15.1v-3.47h1.23c.33-.01.67.06.97.22.26.13.48.34.63.6a2 2 0 01-.01 1.83zm-.8-.09a1.27 1.27 0 000-1.65 1.2 1.2 0 00-.87-.3h-.47v2.25h.48c.32.02.63-.08.87-.3zM9.65 3.25s8.92 3.39 8.73 8.28v8.28s-8.92-3.39-8.73-8.28V3.25zm16.68 14.62a12.16 12.16 0 015.67-2.1v-2.6a11.73 11.73 0 00-5.64 4.65l-.03.05z"/><path  d="M25.32 18.65a12.2 12.2 0 016.6-5.98l.08-.03V5.17S19.3 10 19.56 16.96v11.79s.57-.22 1.46-.62c0-.38 0-.76.04-1.14a12.26 12.26 0 014.24-8.32l.02-.02z"/><path  d="M24.1 23.03c.08-.82.22-1.63.45-2.42a11.34 11.34 0 00-2.69 7.11v.02c1.04-.5 1.84-.93 2.62-1.4l-.18.1a11.9 11.9 0 01-.19-3.46v.05zm.51.04c-.08 1.03-.02 2.08.17 3.1 3.47-2.1 7.37-5.32 7.21-9.2v-.35c-2.58.3-4.86 1.43-6.6 3.1-.4.99-.68 2.12-.77 3.31v.04z"/></symbol>

<symbol id="icon-logo3" viewBox="0 0 32 32"><path  d="M5.47 31.1l.06.03.15.15c-.12.14-.27.24-.43.31-.2.07-.4.12-.61.11-.2 0-.4-.03-.58-.1-.33-.13-.59-.4-.7-.72l-.01-.01a1.57 1.57 0 010-1.16v.01c.15-.34.42-.6.75-.73h.01a1.62 1.62 0 011.15 0c.14.05.3.14.41.25l-.13.17-.03.03a.08.08 0 01-.05.01.1.1 0 01-.06-.02l-.07-.05-.1-.06c-.14-.07-.3-.12-.48-.12H4.7a1.02 1.02 0 00-.77.3c-.1.1-.16.21-.21.34a1.42 1.42 0 000 .91c.05.13.12.24.21.34.1.1.2.17.32.21.12.05.26.08.4.08.07 0 .15 0 .23-.02.2-.02.37-.1.5-.24a.11.11 0 01.08-.03zm4.42-.8a1.37 1.37 0 01-.4 1.01c-.12.12-.28.22-.44.28a1.68 1.68 0 01-1.18 0h.01a1.3 1.3 0 01-.74-.73 1.58 1.58 0 010-1.15v.01a1.28 1.28 0 01.75-.73c.36-.13.78-.13 1.15 0 .34.14.6.4.74.72v.01c.08.19.11.38.11.58zm-.4 0c0-.15-.02-.3-.08-.46a.9.9 0 00-.52-.55 1.2 1.2 0 00-.86 0 .9.9 0 00-.52.55c-.1.3-.1.61 0 .91a.9.9 0 00.52.55c.28.1.58.1.86 0a.9.9 0 00.51-.54c.07-.16.09-.3.08-.46zm3.41.47l.04.1.05-.1.05-.1.98-1.7c.01-.02.03-.04.05-.04l.06-.01h.32v2.75h-.35v-2.2l-.99 1.71a.16.16 0 01-.05.07.16.16 0 01-.08.02H12.92c-.03 0-.06 0-.08-.02a.15.15 0 01-.06-.07l-1.01-1.73v2.21h-.34v-2.75h.3l.07.01c.02.02.05.03.05.06l1 1.7.05.09zm3.69-.13v1.03h-.39v-2.75h.86c.16 0 .32.01.47.06a.8.8 0 01.34.17.7.7 0 01.2.27c.04.11.07.23.06.35a.83.83 0 01-.28.63c-.1.07-.21.15-.34.18-.13.04-.28.07-.44.07h-.02l-.46-.01zm0-.3h.46c.1 0 .2-.01.3-.04.07-.03.15-.07.21-.12.06-.05.1-.1.13-.18a.6.6 0 00.04-.23v-.03a.5.5 0 00-.17-.38.75.75 0 00-.52-.15h-.45v1.13zm5.14 1.33h-.3-.01c-.03 0-.06 0-.08-.02a.18.18 0 01-.05-.06l-.26-.68h-1.3l-.27.67a.14.14 0 01-.05.06.14.14 0 01-.09.03h-.3l1.15-2.75h.4l1.16 2.75zm-1.9-1.02h1.09l-.46-1.12a1.84 1.84 0 01-.08-.25v-.01l-.05.15-.49 1.23zm3.55-1.72l.06.05 1.68 2.08v-2.14h.34v2.75h-.2l-.07-.01a.21.21 0 01-.06-.05l-1.67-2.08v2.14h-.35v-2.75h.2l.08.01zm4.9 1.65v1.1h-.38v-1.1l-1.06-1.66h.34c.03 0 .06 0 .08.02l.06.06.66 1.07c.04.07.08.15.1.24h.01l.05-.11.07-.13.65-1.08a.28.28 0 01.05-.05.12.12 0 01.08-.03h.35l-1.06 1.67zm-15.56-6.29l.5.05c2.6-1.11 4.74-2.9 6.25-5.13l.04-.05a13.12 13.12 0 002.23-7.63v.01l-2.85-2.71c.58 2.87.3 5.83-.78 8.57-1.16 2.82-3.01 5.15-5.35 6.86l-.04.03z"/><path d="M11.7 24.16l.07.02a15.42 15.42 0 005.66-7l.04-.1a14.57 14.57 0 00.5-9.03l.02.1-4.05-3.86a17.85 17.85 0 01-2.26 19.9l.02-.03zm13.75-9.43a14.03 14.03 0 01-4.74 7.59l-.03.02c-.7.58-1.47 1.1-2.27 1.55 2.04-.58 3.8-1.56 5.29-2.85l-.02.01a12.76 12.76 0 003.38-4.68l.04-.08-1.65-1.56z"/><path d="M24.8 14.29l-2.34-2.23a13.68 13.68 0 01-2.23 7.24l.03-.05a14.78 14.78 0 01-5.64 5.1l-.09.03h.02c.52 0 1.04-.02 1.57-.08a14.47 14.47 0 005.65-3.95l.01-.01a13.4 13.4 0 003-5.97l.02-.08zM12.04 2.66L9.24 0a13.28 13.28 0 00-6.13 4.6l-.03.04a12.16 12.16 0 00-2.34 7.14 12.24 12.24 0 002.85 7.78l-.02-.02A13.38 13.38 0 0010.72 24l.1.02a17.6 17.6 0 004.3-11.46c0-3.7-1.15-7.13-3.12-9.95l.04.05zm19.22 11.22a12.32 12.32 0 00-3.89-8.9 13.57 13.57 0 00-14.2-2.84l.1-.03 17.1 16.29c.59-1.45.9-2.98.89-4.52z"/></symbol>

<symbol id="icon-logo2" viewBox="0 0 32 32"><path d="M14.14 1.8h.08l.5.03c.73.06 1.46.17 2.17.34V.4c-.95-.25-2.03-.4-3.15-.4h-.27c-1.52 0-3.04.2-4.51.58a18.26 18.26 0 00-4.88 1.99l.09-.05V20a19.6 19.6 0 018.34-2.37h.11l.65-.02v-1.78a21.1 21.1 0 00-6.86 1.21l.15-.04-.62.2V3.6l.26-.13a17.14 17.14 0 017.26-1.68h.3l.38.02z"/><path d="M18.53 3.65h-.01c-1.21 0-2.39-.14-3.52-.39l.1.02v17.27a14 14 0 003.44.4 18.6 18.6 0 009.4-2.57l-.1.05V1.26a19.05 19.05 0 01-4.43 1.76l-.14.03c-1.55.4-3.13.6-4.73.6zm6.91.3l.61-.2v13.62l-.26.13a16.84 16.84 0 01-8.52 1.62h.05l-.43-.04V5.07l.5.03a21.04 21.04 0 008.2-1.2l-.16.05zM5.38 25.98a.92.92 0 00-.66-.28h-.04c-.13 0-.27.02-.4.07a.93.93 0 00-.58.9v2.35c0 .16.02.32.09.47a1 1 0 00.23.31c.1.08.2.14.32.17s.24.05.36.05a.98.98 0 00.96-.99v-.25h-.61v.2a.4.4 0 01-.03.2.36.36 0 01-.1.14.42.42 0 01-.24.09h-.04a.3.3 0 01-.25-.12.55.55 0 01-.09-.3v-2.2c0-.12.03-.24.08-.34a.3.3 0 01.3-.14c.11 0 .2.05.27.13.06.08.1.19.1.3v.21h.6v-.24c0-.29-.1-.54-.27-.74zM9 25.95a1.08 1.08 0 00-1.06-.19.97.97 0 00-.31.19 1.02 1.02 0 00-.33.78v2.24c0 .16.02.31.09.46.05.12.13.23.24.3.09.1.2.17.32.21a1.06 1.06 0 00.73 0 .96.96 0 00.64-.9v-2.31-.04a1 1 0 00-.32-.74zm-.28 3.02a.39.39 0 01-.12.32.45.45 0 01-.58 0A.4.4 0 017.9 29v-2.27a.39.39 0 01.13-.32.45.45 0 01.57 0 .4.4 0 01.12.29v2.27zm5.05 1v-4.25h-.6l-.76 2.25h-.02l-.77-2.25h-.58v4.24h.6v-2.58h.02l.59 1.83h.3l.6-1.83v2.58h.62zm3.44-3.94a.78.78 0 00-.35-.23 1.31 1.31 0 00-.42-.07h-.92v4.24h.6V28.3h.32c.19 0 .37-.03.54-.11.25-.16.42-.4.47-.7a2.92 2.92 0 00-.03-1.1v.02a.9.9 0 00-.21-.4zm-.31 1.3c0 .07-.03.14-.06.2a.32.32 0 01-.16.16.6.6 0 01-.27.06H16.12V26.3h.31c.1 0 .18.01.28.06.06.03.1.08.14.15a.6.6 0 01.05.23v.58zm3.16-1.6h-.49l-.92 4.24h.6l.18-.91h.82l.18.9h.6l-.96-4.23zm-.55 2.75l.3-1.54.3 1.54h-.6zm4.46-.2h-.01l-.91-2.55h-.58v4.24h.6v-2.55h.01l.92 2.55h.57v-4.25h-.6v2.56zm3.7-2.55l-.5 1.68-.5-1.68h-.63l.83 2.45v1.78h.6v-1.78l.83-2.45h-.64zM3.68 31.16H4v.82h.2v-.82h.28V31H3.7v.16zM6.14 31l-.38.98h.2l.09-.22h.4l.07.22h.22L6.35 31h-.2zm-.03.6l.13-.38.14.37H6.1zm2.44.02h.24v.12a.38.38 0 01-.24.09h-.01a.25.25 0 01-.2-.1.4.4 0 01-.07-.23v-.02c0-.22.1-.33.29-.33h.01c.1 0 .18.07.2.15l.2-.03c-.04-.2-.18-.3-.41-.3h-.02a.5.5 0 00-.33.13.48.48 0 00-.14.39c0 .13.04.26.12.36.1.1.21.15.35.15h.03a.6.6 0 00.42-.16v-.39h-.43v.17zm2.48-.62h-.2v.98h.69v-.16h-.5V31zm2.09 0h-.2v.98h.2V31zm2.04.66l-.4-.66h-.2v.98h.2v-.64l.38.64h.2V31h-.18v.65zm1.85-.1h.5v-.18H17v-.22h.52V31h-.72v.98h.75v-.16H17v-.27zm4.47-.17h-.38v-.4h-.2v1h.2v-.44h.38v.43h.2V31h-.2v.38zm1.86.16h.5v-.17h-.5v-.22h.53V31h-.73v.98h.75v-.16h-.55v-.27zm2.52 0c.17-.03.26-.12.26-.28a.23.23 0 00-.1-.21.55.55 0 00-.25-.06H25.32v.98h.2v-.41h.03c.04 0 .09 0 .12.03.03.01.07.04.08.07l.21.3h.24l-.13-.18a.64.64 0 00-.21-.24zm-.2-.14h-.15v-.24h.16c.07 0 .14 0 .2.02.03.02.05.06.05.1 0 .04-.02.08-.05.1a.56.56 0 01-.17.03h-.04zm2.1.14h.49v-.17h-.5v-.22h.54V31h-.73v.98h.75v-.16h-.56v-.27z"/></symbol>

<symbol id="icon-logo1" viewBox="0 0 32 32"><path  d="M5.44 0l4.67 4.48h13.06v12.29l4.67 4.48V0H5.44z"/><path d="M1.6 4.22v20.61h21.76v-8.19L10.24 4.22H1.6zm17.6 17.6H5.06V8h.96v12.86H19.2v.96zM7.87 28.67l.51-1.09h.45L8 29v.9h-.38v-.9l-.77-1.4h.51l.51 1.08zm2.24.64h-.9l-.19.58h-.38l.83-2.3h.39l.83 2.3h-.39l-.19-.58zM9.34 29h.64l-.32-.9-.32.9zm2.3.26c0-.13 0-.2.14-.32 0-.07.12-.2.32-.26l-.2-.32v-.19c0-.2 0-.32.13-.45s.26-.13.45-.13c.13 0 .26 0 .38.13.13.07.2.2.2.32s0 .2-.13.32l-.2.2-.19.12.45.51.13-.38h.32c0 .26-.06.51-.2.64l.33.45h-.45l-.13-.2-.57.2c-.26 0-.39 0-.52-.2a.64.64 0 01-.25-.44zm.78.32c.12 0 .25 0 .38-.13l-.51-.58c-.2.13-.26.26-.26.39 0 .06 0 .19.13.25l.26.07zm-.2-1.47l.13.38.2-.13.12-.25v-.2h-.38l-.07.2zm4.1 1.02c0 .26-.06.45-.26.58-.12.12-.32.19-.64.19-.12 0-.32 0-.44-.13a.66.66 0 01-.32-.38 1.26 1.26 0 01-.13-.51v-.26c0-.2 0-.39.13-.58a.83.83 0 01.83-.45c.25 0 .45 0 .64.2.13.12.19.32.19.57h-.38c0-.19 0-.32-.13-.38l-.32-.07c-.2 0-.32 0-.39.13-.12.13-.19.32-.19.64v.13l.13.58.38.19c.2 0 .32 0 .39-.13.06 0 .13-.13.13-.32h.38zm2.18-.32l-.07.58c-.13.12-.19.32-.38.38l-.45.13c-.2 0-.38 0-.51-.13a.66.66 0 01-.32-.38c-.13-.2-.13-.39-.13-.64v-.07c0-.25 0-.45.13-.64 0-.13.19-.25.32-.32.13-.13.32-.13.51-.13.13 0 .32 0 .45.13.19.07.25.2.32.39.13.12.13.32.13.57v.13zm-.39-.13c0-.25 0-.45-.13-.64a.45.45 0 00-.38-.13c-.2 0-.32 0-.45.2l-.13.57v.13c0 .26 0 .45.13.58s.26.19.45.19l.38-.2.13-.63v-.07z"/></symbol>

<symbol id="icon-linkedin" viewBox="0 0 32 32"><path d="M32 32V20.26c0-5.73-1.23-10.16-7.95-10.16h-.26a6.96 6.96 0 00-6 3.42l-.01.03h-.1v-2.91H11.3V32h6.64V21.42c0-2.78.53-5.49 3.97-5.49 3.4 0 3.45 3.19 3.45 5.67V32H32zM.53 10.64h6.64V32H.53V10.64zM3.84 0A3.84 3.84 0 000 3.84v.02a3.87 3.87 0 003.84 3.87 3.87 3.87 0 000-7.73z"/></symbol>

<symbol id="icon-instagram" viewBox="0 0 32 32"><path d="M31.97 9.4c-.03-1.4-.3-2.73-.76-3.96l.02.08a7.86 7.86 0 00-1.85-2.83A7.95 7.95 0 0026.54.85 11.48 11.48 0 0022.67.1h-.01a104.86 104.86 0 00-6.69-.1h.1c-4.36 0-4.9.02-6.6.1C7.76.16 6.6.45 5.58.83A8 8 0 002.75 2.7 8 8 0 00.9 5.52 11.47 11.47 0 00.16 9.4a104.86 104.86 0 00-.1 6.69V16c0 4.35 0 4.9.08 6.6.03 1.4.3 2.73.78 3.96l-.02-.08a7.78 7.78 0 001.85 2.83 8 8 0 002.83 1.86c1.01.38 2.18.65 3.88.73 1.7.08 2.24.1 6.59.1s4.9-.02 6.6-.1c1.4-.02 2.73-.29 3.96-.76l-.08.03a8.24 8.24 0 004.67-4.64l.02-.05c.38-1.02.67-2.18.73-3.89.08-1.7.1-2.24.1-6.59 0-4.34 0-4.88-.08-6.6zm-2.88 13.08a8.54 8.54 0 01-.55 2.96 5.34 5.34 0 01-3 3.03l-.04.01c-.56.22-1.42.48-2.97.54-1.68.08-2.2.1-6.47.1a106.97 106.97 0 01-6.7-.1h.24a8.45 8.45 0 01-2.96-.54 4.96 4.96 0 01-1.84-1.2c-.52-.5-.93-1.1-1.19-1.79l-.01-.03a8.64 8.64 0 01-.54-2.98 108.67 108.67 0 01-.1-6.55v.09c0-4.28.02-4.79.1-6.47.06-1.57.32-2.4.54-2.97.26-.7.66-1.32 1.2-1.83.5-.52 1.12-.93 1.8-1.19h.04c.56-.23 1.4-.49 2.98-.55 1.68-.08 2.19-.1 6.44-.1 4.3 0 4.8 0 6.47.1 1.57.06 2.4.32 2.97.54.7.26 1.33.66 1.84 1.2.53.51.95 1.14 1.2 1.83.21.57.48 1.42.55 2.97.08 1.68.1 2.2.1 6.47s-.02 4.76-.1 6.46z"/><path d="M16.06 7.78a8.22 8.22 0 100 16.44 8.22 8.22 0 100-16.44zm0 13.55a5.33 5.33 0 110-10.66 5.33 5.33 0 110 10.66zM26.53 7.46a1.92 1.92 0 01-3.84 0 1.92 1.92 0 013.84 0z"/></symbol>

<symbol id="icon-facebook" viewBox="0 0 32 32"><path d="M21.33 5.31h2.93V.22C23.74.16 22.02 0 20 0c-4.22 0-7.1 2.66-7.1 7.52V12H8.26v5.68h4.64V32h5.7V17.7h4.46l.7-5.7h-5.17V8.08c0-1.65.45-2.77 2.74-2.77z"/></symbol>

<symbol id="icon-envelope" viewBox="0 0 32 32"><path d="M29 4H3a3 3 0 00-3 3v18a3 3 0 003 3h26a3 3 0 003-3V7a3 3 0 00-3-3zm0 2c.15 0 .28.03.4.08L16 17.68 2.6 6.08A.98.98 0 013 6h26zm0 20H3a1 1 0 01-1-1V8.2l13.34 11.56a1 1 0 001.32 0L30 8.2V25a1 1 0 01-1 1z"/></symbol>

<symbol id="icon-diagram_1" viewBox="0 0 32 32"><path fill="var(--color3, #2196f3)" d="M14.93 14.97h1.06v4.8h-1.06v-4.8zm4.26 2.13h1.07v2.66h-1.07V17.1zm-8.53 1.6h1.07v1.06h-1.07V18.7zm-3.2-.54h1.07v1.6H7.46v-1.6z"/><path fill="var(--color4, #212121)" d="M1.6 28.3h25.59c.88 0 1.6-.72 1.6-1.6v-2.14c0-.89-.72-1.6-1.6-1.6h-.54V9.67l3.03-2.87a1.6 1.6 0 10-.75-.75v-.01L26.65 8.2V6.97c0-.88-.71-1.6-1.6-1.6H3.73c-.88 0-1.6.72-1.6 1.6v16H1.6c-.88 0-1.6.71-1.6 1.6v2.12c0 .89.72 1.6 1.6 1.6zM30.39 4.83h.04a.53.53 0 11-.05 1.06.54.54 0 010-1.06zM3.2 6.97c0-.3.24-.53.53-.53h21.32c.3 0 .54.23.54.53V9.2l-1.07 1.01V8.04c0-.3-.24-.54-.53-.54H4.8c-.3 0-.53.24-.53.54v13.32c0 .3.24.53.53.53H24c.29 0 .53-.23.53-.53V11.7l1.06-1.01v12.28H3.2v-16zM8 13.9h-.01a1.6 1.6 0 101.11 2.74l1.86.94c.21.1.47.05.63-.13l3.94-4.43 3.87 2.9c.21.16.5.14.69-.03l3.37-3.2v8.14H5.33V8.56h18.13v2.66l-3.78 3.57-3.9-2.92a.54.54 0 00-.72.07l-4 4.5-1.49-.75.03-.2c0-.88-.72-1.6-1.6-1.6zm.53 1.6a.53.53 0 11-1.07 0 .53.53 0 111.07 0zm3.2 8.53h5.32v.53c0 .3-.24.53-.53.53h-4.26a.54.54 0 01-.54-.53v-.53zm-10.67.53c0-.3.24-.53.54-.53h9.06v.53c0 .88.71 1.6 1.6 1.6h4.26c.89 0 1.6-.72 1.6-1.6v-.53h9.06c.3 0 .53.24.53.53v2.13c0 .3-.23.53-.53.53H1.6a.53.53 0 01-.53-.53v-2.13z"/></symbol>

<symbol id="icon-clock_1" viewBox="0 0 32 32"><path fill="var(--color4, #212121)" d="M31.3 15.3a15.3 15.3 0 10-20.07 14.55l.1.03a.68.68 0 00.54-.06c.14-.08.23-.2.28-.36l3.86-12.25a1.91 1.91 0 10-.85-3.63h.01l-5.1-5.1a.64.64 0 00-.9.9l5.1 5.1a1.87 1.87 0 00.53 2.3v.01l-3.68 11.67a14.04 14.04 0 1110.66-.38l-.09.03-.4-1.87a.64.64 0 00-1.05-.34l-3.83 3.42a.64.64 0 00.22 1.08l4.9 1.57a.64.64 0 00.82-.75l-.39-1.83a15.28 15.28 0 009.33-14.06v-.03zM16 14.66a.64.64 0 010 1.28.64.64 0 010-1.28zm2.1 14.87l2.18-1.95.6 2.84-2.8-.9z"/><path fill="var(--color3, #2196f3)" d="M15.36 3.19v1.33a.64.64 0 101.27-.06V3.18a.64.64 0 00-1.28 0zM3.88 14.66a.64.64 0 000 1.28h1.27a.64.64 0 000-1.28H3.87zm24.23 1.28a.64.64 0 000-1.28h-1.28a.64.64 0 000 1.28h1.28z"/></symbol>

<symbol id="icon-astronaut_1" viewBox="0 0 32 32"><path fill="var(--color3, #2196f3)" d="M31.97 4.53a.54.54 0 00-.43-.37l-1.9-.27-.86-1.74c-.18-.36-.78-.36-.96 0l-.85 1.74-1.9.27a.54.54 0 00-.3.92l1.38 1.34-.33 1.9v.09a.53.53 0 00.78.47l1.7-.9 1.71.9a.53.53 0 00.78-.57v.01l-.33-1.9 1.39-1.35c.14-.14.2-.35.13-.55zm-2.46 1.32a.53.53 0 00-.15.47l.19 1.12-1-.53a.52.52 0 00-.5 0l-1 .53.2-1.12a.53.53 0 00-.16-.47l-.81-.79 1.12-.16a.54.54 0 00.4-.3l.5-1 .5 1c.08.16.23.27.4.3l1.12.16-.8.8zm-3.38 14.68h-1.06v1.06h1.07v-1.07zm0 2.13h-1.06v1.06h1.07v-1.06zm1.07-1.07h-1.06v1.07h1.06v-1.07zm-2.13 0H24v1.07h1.06v-1.07zm-2.67 4.8h-1.06v1.07h1.06v-1.07zm0 2.14h-1.06v1.06h1.06v-1.07zm1.07-1.07H22.4v1.06h1.06v-1.06zm-2.13 0h-1.07v1.06h1.07v-1.06zM16 24.26h-1.06v1.06H16v-1.06zm0 2.13h-1.06v1.07H16v-1.07zm1.07-1.06H16v1.06h1.06v-1.07zm-2.13 0h-1.07v1.06h1.07v-1.07zM5.87 6.13H4.8v1.06h1.07V6.12zm0 2.13H4.8v1.06h1.07V8.26zm1.06-1.07H5.86v1.07h1.07V7.19zm-2.13 0H3.74v1.07H4.8V7.19z"/><path fill="var(--color4, #212121)" d="M24.71 14.16c-.28-.38-.7-.64-1.18-.7a1.77 1.77 0 00-1.34.35l-1.25.96-1.9 1.41-1.36-.54A6.93 6.93 0 0014.83 2.4a6.95 6.95 0 00-5.84 10.7l-2.77-.03H6.2c-.06 0-.1.02-.16.03l-.03.02h-.03l-3.23 1.6-1.9.91a1.78 1.78 0 001.8 3.09h-.02l1.39-.73 2.26-1.17 1.36-.01-6.78 6.76a1.64 1.64 0 000 2.35 1.66 1.66 0 002.36 0l1.3-1.31 1.75-1.3.9.9-1.76 1.75-1.34 1.33a1.64 1.64 0 000 2.36 1.66 1.66 0 002.36 0l3.48-3.47 1.01-1 .02-.03 5.16-5.66 3.48.5h.06a.5.5 0 00.2-.03l.05-.03.06-.02 3.21-2.13.03-.04.04-.02 1.27-1.2a1.78 1.78 0 00.2-2.36h.01zm-22.58 3.6a.72.72 0 01-.78-1.2l1.32-.63.32.92.13.4-.99.52zm3.5-1.82l-1.55.8-.26-.74-.18-.54 2.03-1-.04 1.48zm15.1-6.61a5.8 5.8 0 01-.6 2.56l-4.18-1.9a1.86 1.86 0 00-.78-1.39h-.01l1.46-4.86a5.87 5.87 0 014.1 5.59zm-11.8 0a5.89 5.89 0 016.68-5.82h-.03l-1.44 4.75h-.05c-1.03 0-1.87.83-1.87 1.86a1.87 1.87 0 003.48.93l3.87 1.75A5.9 5.9 0 018.93 9.33zm5.96.8a.8.8 0 11-1.61 0 .8.8 0 011.61 0zM2.47 25.15a.61.61 0 01-.86 0 .6.6 0 010-.85l.96-.96.86.85-.97.95zm3.21 3.73a.6.6 0 01-.85-.84l.96-.96.4.4.45.45-.96.95zm3.49-3.47L7.4 27.17l-.85-.85 1.76-1.75.1-.14.02-.04a.37.37 0 00.02-.12l.02-.08-.02-.1-.02-.1a.7.7 0 00-.09-.14l-.03-.04-1.6-1.6-.06-.03c-.03-.03-.06-.05-.1-.06a.5.5 0 00-.08-.03.47.47 0 00-.1-.02h-.1l-.1.02a.31.31 0 00-.1.05l-.06.02-1.77 1.33-.9-.9 2.4-2.39 4.36 4.3-.93.91zm6.81-7.02h-.07a.52.52 0 00-.35.14l-.05.03-4.7 5.15-4.32-4.25 2.83-2.83c.1-.1.16-.23.16-.37 0-.3-.24-.54-.53-.54l-2.23.01.03-1.6 3.1.02a6.93 6.93 0 006.31 1.97l-.04.01c.03.03.08.07.13.09l2.4.96.16.76.18.88-3-.42zm4.04.18l-.3-1.55 1.44-1.08.38.5.56.75-2.08 1.38zm3.76-2.83l-.84.79-.93-1.24.83-.64a.73.73 0 01.55-.14.72.72 0 01.4 1.23z"/><path fill="var(--color4, #212121)" d="M13.6 18.55l-2.14-2.14a.53.53 0 00-.75 0l-2.15 2.14a.53.53 0 000 .75l2.15 2.13a.53.53 0 00.75 0l2.14-2.13a.53.53 0 000-.75zm-2.51 1.75l-1.4-1.37 1.39-1.39 1.39 1.39-1.4 1.38zm6.08-15.23l-.27 1.04c.08.01 1.74.45 1.74 2.15h1.07c0-2.02-1.67-2.97-2.54-3.19zm2.54 4.26h-1.07v1.06h1.07V9.32z"/></symbol>

<symbol id="icon-antenna_1" viewBox="0 0 32 32"><path fill="var(--color4, #212121)" d="M30.77 22.1l-8.44-8.5.94-4.62c.24.09.5.14.76.14h.03a2.16 2.16 0 10-2.03-1.42V7.7l-4.96.6L8.97.16A.54.54 0 008.6 0a.52.52 0 00-.37.15L6.7 1.65a.53.53 0 000 .76l.82.82a14.9 14.9 0 002.52 17.66c.04.05.09.08.14.1-.03.2-.05.38-.05.56v6.18h-6.4a2.67 2.67 0 00-2.67 2.67v1.06c0 .3.24.54.54.54h24.53c.3 0 .53-.24.53-.54V30.4c0-1.47-1.2-2.67-2.66-2.67h-6.4V25a14.79 14.79 0 0010.17-1.5l-.08.04.81.82c.1.1.24.16.38.16s.27-.06.37-.15l1.51-1.51a.53.53 0 000-.75zm-7.5-15.87A1.06 1.06 0 0125.1 7c0 .59-.47 1.06-1.06 1.06a1.07 1.07 0 01-.75-1.82zm-1.25 3.5l-.6 2.95-1.17-1.18 1.77-1.76zm-.6-.9l-1.92 1.91L18 9.25l3.4-.41zM24 28.8c.89 0 1.6.72 1.6 1.6v.54H2.14v-.54c0-.88.72-1.6 1.6-1.6H24zm-7.46-2.14v1.07H11.2v-1.07h5.34zM11.2 25.6v-4.05c0-1.3 1.2-2.35 2.67-2.35s2.66 1.05 2.66 2.35v4.05H11.2zm6.4-1.7v-2.35c0-1.88-1.67-3.41-3.73-3.41h-.07a3.8 3.8 0 00-3.2 1.76l-.02.02A13.81 13.81 0 018.34 3.96l-.03.07 18.6 18.71a13.64 13.64 0 01-9.4 1.15l.1.01zm11.3-.68l-.76-.76L7.84 2.04l.75-.75 21.06 21.18-.76.75z"/><path fill="var(--color3, #2196f3)" d="M13.87 20.27a1.6 1.6 0 000 3.2 1.6 1.6 0 000-3.2zm.38 1.98a.53.53 0 01-.91-.38c0-.3.23-.54.53-.54a.54.54 0 01.37.91z"/></symbol></defs>

<symbol id="icon-logo4" viewBox="0 0 60 32">
<path d="M9.229 9.548h-0.002c-1.684 0-3.048 1.33-3.048 2.971v0.002c0 1.641 1.365 2.971 3.048 2.971h0.002c1.684 0 3.048-1.33 3.048-2.971v-0.002c0-1.641-1.365-2.971-3.048-2.971z"></path>
<path d="M31.73 8.599c-0.005-2.279-0.936-4.463-2.589-6.074s-3.894-2.519-6.233-2.524v0c-2.339 0.004-4.581 0.911-6.235 2.523s-2.586 3.796-2.59 6.076v12.566c0 0 17.645-1.915 17.647-12.564v-0.002z"></path>
<path d="M-0 25.289c0.004 1.586 0.652 3.105 1.803 4.226s2.709 1.753 4.336 1.758c1.627-0.005 3.185-0.636 4.336-1.757s1.799-2.64 1.803-4.225v-8.744c0 0-12.278 1.334-12.278 8.742zM6.139 26.856c-0.318 0-0.629-0.092-0.893-0.264s-0.47-0.417-0.592-0.703-0.154-0.601-0.091-0.905c0.062-0.304 0.215-0.583 0.44-0.802s0.511-0.368 0.823-0.429c0.312-0.060 0.635-0.029 0.929 0.089s0.545 0.319 0.721 0.577c0.177 0.258 0.271 0.561 0.271 0.87 0.001 0.206-0.040 0.411-0.121 0.601s-0.199 0.364-0.348 0.51c-0.149 0.146-0.327 0.262-0.522 0.341s-0.405 0.12-0.617 0.12v-0.006z"></path>
<path d="M18.671 25.884h-1.256v1.297h-0.654v-3.174h2.067v0.53h-1.413v0.82h1.256v0.528zM21.815 25.666c0 0.312-0.055 0.587-0.166 0.822s-0.269 0.417-0.475 0.545c-0.205 0.128-0.44 0.192-0.706 0.192-0.263 0-0.498-0.063-0.704-0.19s-0.366-0.307-0.48-0.541c-0.113-0.235-0.171-0.506-0.172-0.811v-0.157c0-0.312 0.056-0.587 0.168-0.824 0.113-0.238 0.273-0.421 0.477-0.547 0.206-0.128 0.442-0.192 0.706-0.192s0.499 0.064 0.704 0.192c0.206 0.126 0.366 0.309 0.477 0.547 0.113 0.237 0.17 0.511 0.17 0.822v0.142zM21.152 25.522c0-0.333-0.060-0.586-0.179-0.759s-0.289-0.259-0.51-0.259c-0.219 0-0.389 0.086-0.508 0.257-0.119 0.17-0.18 0.42-0.181 0.75v0.155c0 0.324 0.060 0.576 0.179 0.754s0.291 0.268 0.515 0.268c0.22 0 0.388-0.086 0.506-0.257 0.118-0.173 0.177-0.424 0.179-0.754v-0.155zM23.936 26.348c0-0.124-0.044-0.218-0.131-0.283-0.087-0.067-0.244-0.137-0.471-0.209-0.227-0.074-0.406-0.147-0.539-0.218-0.36-0.195-0.541-0.457-0.541-0.787 0-0.172 0.048-0.324 0.144-0.458 0.097-0.135 0.236-0.241 0.416-0.316 0.182-0.076 0.385-0.113 0.61-0.113 0.227 0 0.429 0.041 0.606 0.124 0.177 0.081 0.315 0.197 0.412 0.347 0.099 0.15 0.148 0.32 0.148 0.51h-0.654c0-0.145-0.046-0.258-0.137-0.338-0.092-0.081-0.22-0.122-0.386-0.122-0.16 0-0.284 0.034-0.373 0.102-0.089 0.067-0.133 0.156-0.133 0.266 0 0.103 0.052 0.19 0.155 0.259 0.105 0.070 0.258 0.135 0.46 0.196 0.372 0.112 0.643 0.251 0.813 0.416s0.255 0.372 0.255 0.619c0 0.275-0.104 0.491-0.312 0.648-0.208 0.156-0.488 0.233-0.839 0.233-0.244 0-0.467-0.044-0.667-0.133-0.201-0.090-0.354-0.213-0.46-0.368-0.105-0.156-0.157-0.336-0.157-0.541h0.656c0 0.35 0.209 0.525 0.628 0.525 0.156 0 0.277-0.031 0.364-0.094 0.087-0.064 0.131-0.153 0.131-0.266zM27.427 24.536h-0.972v2.645h-0.654v-2.645h-0.959v-0.53h2.586v0.53zM29.712 25.805h-1.256v0.85h1.474v0.525h-2.128v-3.174h2.124v0.53h-1.469v0.757h1.256v0.512zM31.489 26.019h-0.521v1.162h-0.654v-3.174h1.18c0.375 0 0.664 0.084 0.868 0.251s0.305 0.403 0.305 0.709c0 0.217-0.047 0.397-0.142 0.543-0.093 0.144-0.235 0.259-0.425 0.344l0.687 1.297v0.030h-0.702l-0.595-1.162zM30.967 25.489h0.528c0.164 0 0.291-0.041 0.382-0.124 0.090-0.084 0.135-0.2 0.135-0.347 0-0.15-0.043-0.267-0.129-0.353-0.084-0.086-0.214-0.129-0.39-0.129h-0.525v0.953zM34.931 26.063v1.118h-0.654v-3.174h1.238c0.238 0 0.448 0.044 0.628 0.131 0.182 0.087 0.321 0.212 0.419 0.373 0.097 0.16 0.146 0.342 0.146 0.547 0 0.311-0.107 0.557-0.321 0.737-0.212 0.179-0.507 0.268-0.883 0.268h-0.573zM34.931 25.533h0.584c0.173 0 0.305-0.041 0.395-0.122 0.092-0.081 0.137-0.198 0.137-0.349 0-0.156-0.046-0.281-0.137-0.377s-0.218-0.145-0.379-0.148h-0.6v0.996zM39.069 25.805h-1.256v0.85h1.474v0.525h-2.128v-3.174h2.124v0.53h-1.469v0.757h1.256v0.512zM42.104 24.536h-0.972v2.645h-0.654v-2.645h-0.959v-0.53h2.586v0.53zM44.389 25.805h-1.256v0.85h1.474v0.525h-2.128v-3.174h2.124v0.53h-1.469v0.757h1.256v0.512zM46.166 26.019h-0.521v1.162h-0.654v-3.174h1.179c0.375 0 0.664 0.084 0.868 0.251s0.305 0.403 0.305 0.709c0 0.217-0.047 0.397-0.142 0.543-0.093 0.144-0.235 0.259-0.425 0.344l0.687 1.297v0.030h-0.702l-0.595-1.162zM45.645 25.489h0.528c0.164 0 0.291-0.041 0.382-0.124 0.090-0.084 0.135-0.2 0.135-0.347 0-0.15-0.043-0.267-0.129-0.353-0.084-0.086-0.214-0.129-0.39-0.129h-0.525v0.953zM49.489 26.348c0-0.124-0.044-0.218-0.131-0.283-0.087-0.067-0.244-0.137-0.471-0.209-0.227-0.074-0.406-0.147-0.538-0.218-0.36-0.195-0.541-0.457-0.541-0.787 0-0.172 0.048-0.324 0.144-0.458 0.097-0.135 0.236-0.241 0.416-0.316 0.182-0.076 0.385-0.113 0.61-0.113 0.227 0 0.429 0.041 0.606 0.124 0.177 0.081 0.315 0.197 0.412 0.347 0.099 0.15 0.148 0.32 0.148 0.51h-0.654c0-0.145-0.046-0.258-0.137-0.338-0.092-0.081-0.22-0.122-0.386-0.122-0.16 0-0.284 0.034-0.373 0.102-0.089 0.067-0.133 0.156-0.133 0.266 0 0.103 0.052 0.19 0.155 0.259 0.105 0.070 0.258 0.135 0.46 0.196 0.372 0.112 0.643 0.251 0.813 0.416s0.255 0.372 0.255 0.619c0 0.275-0.104 0.491-0.312 0.648-0.208 0.156-0.488 0.233-0.839 0.233-0.244 0-0.467-0.044-0.667-0.133-0.201-0.090-0.354-0.213-0.46-0.368-0.105-0.156-0.157-0.336-0.157-0.541h0.656c0 0.35 0.209 0.525 0.628 0.525 0.156 0 0.277-0.031 0.364-0.094 0.087-0.064 0.131-0.153 0.131-0.266z"></path>
</symbol>
<symbol id="icon-logo6" viewBox="0 0 62 32">
<path d="M31.124 14.854c-0.291-0.424-0.43-0.926-0.397-1.431v-2.075c0-0.636 0.132-1.119 0.395-1.45s0.715-0.495 1.356-0.494c0.602 0 1.029 0.141 1.282 0.422 0.276 0.359 0.41 0.798 0.379 1.241v0.488h-1.077v-0.494c0.004-0.162-0.007-0.323-0.031-0.483-0.016-0.109-0.070-0.211-0.154-0.287-0.111-0.082-0.25-0.122-0.39-0.112-0.148-0.010-0.294 0.032-0.41 0.118-0.094 0.085-0.156 0.196-0.178 0.317-0.031 0.169-0.045 0.341-0.042 0.513v2.518c-0.017 0.243 0.031 0.486 0.138 0.707 0.054 0.075 0.128 0.134 0.215 0.171s0.183 0.051 0.278 0.040c0.138 0.011 0.275-0.030 0.381-0.114 0.088-0.082 0.144-0.19 0.161-0.306 0.025-0.167 0.036-0.336 0.033-0.505v-0.511h1.077v0.466c0.030 0.462-0.101 0.92-0.372 1.304-0.247 0.308-0.669 0.462-1.289 0.462s-1.088-0.165-1.353-0.507z"></path>
<path d="M35.607 14.876c-0.272-0.323-0.408-0.794-0.408-1.416v-2.182c0-0.616 0.136-1.083 0.408-1.399s0.727-0.474 1.364-0.473c0.633 0 1.086 0.158 1.358 0.473 0.272 0.317 0.41 0.783 0.41 1.399v2.182c0 0.616-0.138 1.089-0.415 1.414s-0.727 0.488-1.353 0.488c-0.626 0-1.090-0.165-1.364-0.485zM37.474 14.352c0.097-0.202 0.142-0.424 0.129-0.646v-2.672c0.013-0.218-0.031-0.435-0.127-0.633-0.055-0.076-0.131-0.137-0.22-0.174s-0.187-0.050-0.284-0.037c-0.097-0.013-0.195 0-0.285 0.037s-0.166 0.097-0.221 0.174c-0.098 0.198-0.142 0.415-0.129 0.633v2.685c-0.014 0.222 0.031 0.444 0.129 0.646 0.063 0.068 0.14 0.123 0.227 0.16s0.181 0.057 0.277 0.057c0.096 0 0.19-0.019 0.277-0.057s0.164-0.092 0.227-0.16v-0.013z"></path>
<path d="M40.035 9.468h1.159l0.872 4.027 0.892-4.027h1.128l0.114 5.812h-0.834l-0.089-4.040-0.861 4.040h-0.669l-0.892-4.054-0.082 4.054h-0.843l0.105-5.812z"></path>
<path d="M45.5 9.468h1.806c1.040 0 1.561 0.55 1.561 1.65 0 1.054-0.548 1.58-1.643 1.579h-0.615v2.583h-1.115l0.007-5.812zM47.042 11.952c0.11 0.013 0.222 0.004 0.328-0.028s0.203-0.085 0.285-0.156c0.128-0.196 0.184-0.427 0.16-0.656 0.006-0.177-0.012-0.355-0.053-0.528-0.016-0.058-0.044-0.112-0.082-0.159s-0.086-0.087-0.141-0.117c-0.155-0.070-0.326-0.102-0.497-0.093h-0.432v1.737h0.432z"></path>
<path d="M50.474 9.468h1.197l1.228 5.812h-1.039l-0.243-1.34h-1.068l-0.25 1.34h-1.055l1.228-5.812zM51.497 13.267l-0.417-2.44-0.417 2.44h0.834z"></path>
<path d="M53.892 9.468h0.78l1.494 3.316v-3.316h0.925v5.812h-0.742l-1.503-3.461v3.461h-0.957l0.002-5.812z"></path>
<path d="M59.258 13.064l-1.242-3.588h1.046l0.758 2.305 0.711-2.305h1.023l-1.226 3.588v2.216h-1.070v-2.216z"></path>
<path d="M32.845 17.822v0.304h-0.91v2.362h-0.381v-2.362h-0.914v-0.304h2.205z"></path>
<path d="M35.697 20.488h-0.294c-0.030 0.002-0.059-0.007-0.083-0.025-0.022-0.015-0.039-0.037-0.049-0.061l-0.263-0.633h-1.262l-0.263 0.633c-0.007 0.026-0.021 0.051-0.040 0.072-0.023 0.018-0.053 0.027-0.083 0.025h-0.294l1.115-2.666h0.388l1.128 2.655zM33.85 19.498h1.052l-0.446-1.085c-0.033-0.082-0.060-0.166-0.083-0.251-0.016 0.051-0.029 0.099-0.042 0.141l-0.040 0.112-0.441 1.083z"></path>
<path d="M37.618 20.226c0.070 0.003 0.14 0.003 0.21 0 0.060-0.006 0.12-0.016 0.178-0.032 0.055-0.013 0.108-0.029 0.16-0.049 0.049-0.019 0.098-0.042 0.149-0.065v-0.599h-0.446c-0.011 0.001-0.022-0.001-0.032-0.005s-0.020-0.009-0.028-0.017c-0.007-0.006-0.013-0.014-0.017-0.022s-0.006-0.018-0.005-0.027v-0.205h0.865v1.022c-0.071 0.048-0.145 0.090-0.223 0.127-0.080 0.037-0.162 0.068-0.247 0.091-0.091 0.025-0.184 0.044-0.279 0.055-0.108 0.011-0.217 0.017-0.325 0.017-0.192 0.002-0.383-0.032-0.562-0.099-0.167-0.064-0.319-0.158-0.446-0.279-0.124-0.122-0.222-0.265-0.288-0.422-0.070-0.177-0.105-0.364-0.103-0.553-0.002-0.19 0.032-0.379 0.1-0.557 0.064-0.158 0.162-0.302 0.288-0.422 0.127-0.12 0.279-0.214 0.446-0.277 0.191-0.068 0.394-0.102 0.597-0.099 0.104-0 0.207 0.008 0.31 0.023 0.091 0.014 0.179 0.037 0.265 0.068 0.078 0.028 0.153 0.063 0.223 0.106 0.068 0.042 0.133 0.088 0.194 0.139l-0.107 0.165c-0.008 0.015-0.021 0.028-0.036 0.037s-0.033 0.014-0.051 0.014c-0.025-0.001-0.049-0.008-0.069-0.021-0.033-0.017-0.069-0.038-0.109-0.063-0.047-0.028-0.097-0.052-0.149-0.072-0.066-0.025-0.135-0.045-0.205-0.059-0.093-0.016-0.188-0.024-0.283-0.023-0.147-0.002-0.293 0.023-0.43 0.074-0.124 0.047-0.236 0.119-0.328 0.211-0.092 0.096-0.163 0.209-0.207 0.331-0.1 0.289-0.1 0.6 0 0.889 0.049 0.125 0.125 0.24 0.223 0.336 0.091 0.091 0.202 0.163 0.325 0.211 0.142 0.046 0.292 0.064 0.441 0.053z"></path>
<path d="M41.172 20.184h1.217v0.304h-1.59v-2.666h0.381l-0.009 2.362z"></path>
<path d="M43.656 20.488h-0.381v-2.666h0.381v2.666z"></path>
<path d="M45.074 17.834c0.023 0.012 0.042 0.029 0.058 0.049l1.63 2.009c-0.002-0.032-0.002-0.063 0-0.095 0-0.030 0-0.059 0-0.087v-1.9h0.332v2.676h-0.192c-0.028 0.002-0.057-0.003-0.083-0.015-0.023-0.013-0.044-0.030-0.060-0.051l-1.628-2.007c0 0.032 0 0.061 0 0.091s0 0.057 0 0.082v1.9h-0.319v-2.666h0.198c0.022 0 0.043 0.004 0.062 0.013z"></path>
<path d="M49.901 17.822v0.293h-1.351v0.88h1.095v0.283h-1.095v0.91h1.351v0.293h-1.743v-2.659h1.743z"></path>
<path d="M9.95 1.359l16.929 4.551v15.946l-16.929-4.548v-15.948zM8.864 0v18.082l19.098 5.135v-18.080l-19.098-5.137z"></path>
<path d="M19.1 31.611l-19.1-5.139v-18.080l19.1 5.137v18.082z"></path>
<path d="M9.181 1.155l16.708 4.493-7.105 6.729-16.71-4.496 7.108-6.726zM8.864 0l-8.864 8.392 19.1 5.137 8.862-8.392-19.098-5.137z"></path>
<path d="M20.175 30.593l7.788-7.374-7.788-2.096v9.47z"></path>
</symbol>
<symbol id="icon-send" viewBox="0 0 32 32">
<path fill="#fff" style="fill: var(--color1, #fff)" d="M32 0l-32 18 10.227 3.788 15.773-14.788-11.998 16.186 0.010 0.004-0.012-0.004v8.814l5.735-6.691 7.265 2.691 5-28z"></path>
</symbol>
<symbol id="icon-close" viewBox="0 0 32 32">
<path d="M32 3.223l-3.223-3.223-12.777 12.777-12.777-12.777-3.223 3.223 12.777 12.777-12.777 12.777 3.223 3.223 12.777-12.777 12.777 12.777 3.223-3.223-12.777-12.777 12.777-12.777z"></path>
</symbol>
<symbol id="icon-email" viewBox="0 0 32 32">
<path d="M26.667 5.333h-21.333c-1.467 0-2.653 1.2-2.653 2.667l-0.013 16c0 1.467 1.2 2.667 2.667 2.667h21.333c1.467 0 2.667-1.2 2.667-2.667v-16c0-1.467-1.2-2.667-2.667-2.667zM26.133 11l-9.427 5.893c-0.427 0.267-0.987 0.267-1.413 0l-9.427-5.893c-0.333-0.213-0.533-0.573-0.533-0.96 0-0.893 0.973-1.427 1.733-0.96l8.933 5.587 8.933-5.587c0.76-0.467 1.733 0.067 1.733 0.96 0 0.387-0.2 0.747-0.533 0.96z"></path>
</symbol>
<symbol id="icon-coll" viewBox="0 0 32 32">
<path d="M24.882 19.773l-3.268-0.373c-0.785-0.090-1.557 0.18-2.11 0.733l-2.367 2.367c-3.641-1.853-6.626-4.825-8.478-8.478l2.38-2.38c0.553-0.553 0.823-1.325 0.733-2.11l-0.373-3.242c-0.154-1.299-1.248-2.277-2.56-2.277h-2.226c-1.454 0-2.663 1.209-2.573 2.663 0.682 10.987 9.469 19.761 20.443 20.443 1.454 0.090 2.663-1.119 2.663-2.573v-2.226c0.013-1.299-0.965-2.393-2.264-2.547z"></path>
</symbol>
<symbol id="icon-people" viewBox="0 0 32 32">
<path d="M16 16c2.947 0 5.333-2.387 5.333-5.333s-2.387-5.333-5.333-5.333c-2.947 0-5.333 2.387-5.333 5.333s2.387 5.333 5.333 5.333zM16 18.667c-3.56 0-10.667 1.787-10.667 5.333v1.333c0 0.733 0.6 1.333 1.333 1.333h18.667c0.733 0 1.333-0.6 1.333-1.333v-1.333c0-3.547-7.107-5.333-10.667-5.333z"></path>
</symbol>
<symbol id="icon-header" viewBox="0 0 32 32">
<path d="M6.4 11.733v-2.133h19.2v2.133h-19.2zM6.4 17.067h19.2v-2.133h-19.2v2.133zM6.4 22.4h19.2v-2.133h-19.2v2.133z"></path>
</symbol>


</svg>